{"scene":0,"scenes":[{"nodes":[0]}],"asset":{"version":"2.0","generator":"https://github.com/mikedh/trimesh"},"accessors":[{"componentType":5125,"type":"SCALAR","bufferView":0,"count":1137342,"max":[189460],"min":[0]},{"componentType":5126,"type":"VEC3","byteOffset":0,"bufferView":1,"count":189461,"max":[63.439151763916016,62.44178771972656,72.31546020507812],"min":[-62.42096710205078,-66.49999237060547,-85.39185333251953]}],"meshes":[{"name":"dummy.obj","extras":{"processed":true,"file_path":"/Users/aquino/brainkey-AR/dummy.obj","file_name":"dummy.obj"},"primitives":[{"attributes":{"POSITION":1},"indices":0,"mode":4}]}],"nodes":[{"name":"world","children":[1]},{"name":"dummy.obj","mesh":0}],"buffers":[{"uri":"gltf_buffer_0.bin","byteLength":4549368},{"uri":"gltf_buffer_1.bin","byteLength":2273532}],"bufferViews":[{"buffer":0,"byteOffset":0,"byteLength":4549368},{"buffer":1,"byteOffset":0,"byteLength":2273532}]}