{
	"asset":{
		"generator":"Khronos glTF Blender I/O v3.5.30",
		"version":"2.0"
	},
	"scene":0,
	"scenes":[
		{
			"name":"Scene",
			"nodes":[
				105
			]
		}
	],
	"nodes":[
		{
			"name":"Behaviors"
		},
		{
			"name":"Children"
		},
		{
			"mesh":0,
			"name":"Cube.001"
		},
		{
			"children":[
				2
			],
			"name":"References.001"
		},
		{
			"children":[
				3
			],
			"name":"Conversion.002",
			"translation":[
				0,
				0,
				-2
			]
		},
		{
			"children":[
				4
			],
			"name":"Generated.011"
		},
		{
			"children":[
				1,
				5
			],
			"name":"USDScene"
		},
		{
			"children":[
				6
			],
			"name":"Children.002"
		},
		{
			"name":"Generated.008"
		},
		{
			"children":[
				7,
				8
			],
			"name":"_131A075A707A4F75AD1175C5E5C1752B"
		},
		{
			"mesh":1,
			"name":"default.001"
		},
		{
			"children":[
				10
			],
			"name":"Geom.010"
		},
		{
			"name":"Materials.002"
		},
		{
			"children":[
				11,
				12
			],
			"name":"Fourth_ventricle_surface"
		},
		{
			"name":"Generated.016"
		},
		{
			"children":[
				13,
				14
			],
			"name":"Fourth_ventricle",
			"scale":[
				0.009999999776482582,
				0.009999999776482582,
				0.009999999776482582
			],
			"translation":[
				0,
				0,
				-1
			]
		},
		{
			"name":"Generated.013"
		},
		{
			"mesh":2,
			"name":"default.002"
		},
		{
			"children":[
				17
			],
			"name":"Geom.011"
		},
		{
			"name":"Materials.001"
		},
		{
			"children":[
				18,
				19
			],
			"name":"hippocampus1_surface"
		},
		{
			"children":[
				16,
				20
			],
			"name":"hippocampus1",
			"scale":[
				0.009999999776482582,
				0.009999999776482582,
				0.009999999776482582
			],
			"translation":[
				0,
				0,
				-1
			]
		},
		{
			"name":"Generated.005"
		},
		{
			"mesh":3,
			"name":"default.006"
		},
		{
			"children":[
				23
			],
			"name":"Geom.007"
		},
		{
			"name":"Materials"
		},
		{
			"children":[
				24,
				25
			],
			"name":"hippocampus2_surface"
		},
		{
			"children":[
				22,
				26
			],
			"name":"hippocampus2",
			"scale":[
				0.009999999776482582,
				0.009999999776482582,
				0.009999999776482582
			],
			"translation":[
				0,
				0,
				-1
			]
		},
		{
			"name":"Generated.014"
		},
		{
			"mesh":4,
			"name":"default.003"
		},
		{
			"children":[
				29
			],
			"name":"Geom.009"
		},
		{
			"name":"Materials.004"
		},
		{
			"children":[
				30,
				31
			],
			"name":"Left_Inferior_lateral_ventricle_surface"
		},
		{
			"children":[
				28,
				32
			],
			"name":"Left_Inferior_lateral_ventricle",
			"scale":[
				0.009999999776482582,
				0.009999999776482582,
				0.009999999776482582
			],
			"translation":[
				0,
				0,
				-1
			]
		},
		{
			"name":"Generated.007"
		},
		{
			"mesh":5,
			"name":"default.005"
		},
		{
			"children":[
				35
			],
			"name":"Geom.006"
		},
		{
			"name":"Materials.005"
		},
		{
			"children":[
				36,
				37
			],
			"name":"Left_lateral_ventricle_surface"
		},
		{
			"children":[
				34,
				38
			],
			"name":"Left_lateral_ventricle",
			"scale":[
				0.009999999776482582,
				0.009999999776482582,
				0.009999999776482582
			],
			"translation":[
				0,
				0,
				-1
			]
		},
		{
			"name":"Generated.004"
		},
		{
			"mesh":6,
			"name":"default.009"
		},
		{
			"children":[
				41
			],
			"name":"Geom.004"
		},
		{
			"name":"Materials.006"
		},
		{
			"children":[
				42,
				43
			],
			"name":"PVS_surface"
		},
		{
			"children":[
				40,
				44
			],
			"name":"pvs",
			"scale":[
				0.009999999776482582,
				0.009999999776482582,
				0.009999999776482582
			],
			"translation":[
				0,
				0,
				-1
			]
		},
		{
			"name":"Generated.001"
		},
		{
			"mesh":7,
			"name":"default.011"
		},
		{
			"children":[
				47
			],
			"name":"Geom.003"
		},
		{
			"name":"Materials.008"
		},
		{
			"children":[
				48,
				49
			],
			"name":"Right_Inferior_lateral_ventricle_surface"
		},
		{
			"children":[
				46,
				50
			],
			"name":"right_Inferior_lateral_ventricle",
			"scale":[
				0.009999999776482582,
				0.009999999776482582,
				0.009999999776482582
			],
			"translation":[
				0,
				0,
				-1
			]
		},
		{
			"name":"Generated.003"
		},
		{
			"mesh":8,
			"name":"default.008"
		},
		{
			"children":[
				53
			],
			"name":"Geom.002"
		},
		{
			"name":"Materials.009"
		},
		{
			"children":[
				54,
				55
			],
			"name":"Right_lateral_ventricle_surface"
		},
		{
			"children":[
				52,
				56
			],
			"name":"right_lateral_ventricle",
			"scale":[
				0.009999999776482582,
				0.009999999776482582,
				0.009999999776482582
			],
			"translation":[
				0,
				0,
				-1
			]
		},
		{
			"name":"Children.004"
		},
		{
			"mesh":9,
			"name":"Cube.002"
		},
		{
			"children":[
				59
			],
			"name":"References.002"
		},
		{
			"children":[
				60
			],
			"name":"Conversion.001",
			"translation":[
				-1,
				0,
				-2
			]
		},
		{
			"children":[
				61
			],
			"name":"Generated.017"
		},
		{
			"children":[
				58,
				62
			],
			"name":"USDScene.002"
		},
		{
			"children":[
				63
			],
			"name":"Children.003"
		},
		{
			"name":"Generated.002"
		},
		{
			"children":[
				64,
				65
			],
			"name":"show_ventricles"
		},
		{
			"name":"Children.005"
		},
		{
			"mesh":10,
			"name":"Cube"
		},
		{
			"children":[
				68
			],
			"name":"References"
		},
		{
			"children":[
				69
			],
			"name":"Conversion",
			"translation":[
				1,
				0,
				-2
			]
		},
		{
			"children":[
				70
			],
			"name":"Generated.006"
		},
		{
			"children":[
				67,
				71
			],
			"name":"USDScene.001"
		},
		{
			"children":[
				72
			],
			"name":"Children.006"
		},
		{
			"name":"Generated.012"
		},
		{
			"children":[
				73,
				74
			],
			"name":"show_wmh"
		},
		{
			"name":"Generated.009"
		},
		{
			"mesh":11,
			"name":"default.004"
		},
		{
			"children":[
				77
			],
			"name":"Geom.001"
		},
		{
			"name":"Materials.010"
		},
		{
			"children":[
				78,
				79
			],
			"name":"Third_ventricle_surface"
		},
		{
			"children":[
				76,
				80
			],
			"name":"third_ventricle",
			"scale":[
				0.009999999776482582,
				0.009999999776482582,
				0.009999999776482582
			],
			"translation":[
				0,
				0,
				-1
			]
		},
		{
			"name":"Generated.015"
		},
		{
			"mesh":12,
			"name":"default"
		},
		{
			"children":[
				83
			],
			"name":"Geom"
		},
		{
			"name":"Materials.011"
		},
		{
			"children":[
				84,
				85
			],
			"name":"vasculature_surface"
		},
		{
			"children":[
				82,
				86
			],
			"name":"vasculature",
			"scale":[
				0.009999999776482582,
				0.009999999776482582,
				0.009999999776482582
			],
			"translation":[
				0,
				0,
				-1
			]
		},
		{
			"name":"Generated.010"
		},
		{
			"mesh":13,
			"name":"default.007"
		},
		{
			"children":[
				89
			],
			"name":"Geom.008"
		},
		{
			"name":"Materials.003"
		},
		{
			"children":[
				90,
				91
			],
			"name":"wholebrain_surface"
		},
		{
			"children":[
				88,
				92
			],
			"name":"wholebrain",
			"scale":[
				0.009999999776482582,
				0.009999999776482582,
				0.009999999776482582
			],
			"translation":[
				0,
				0,
				-1
			]
		},
		{
			"name":"Generated"
		},
		{
			"mesh":14,
			"name":"default.010"
		},
		{
			"children":[
				95
			],
			"name":"Geom.005"
		},
		{
			"name":"Materials.007"
		},
		{
			"children":[
				96,
				97
			],
			"name":"wmh_surface"
		},
		{
			"children":[
				94,
				98
			],
			"name":"wmh",
			"scale":[
				0.009999999776482582,
				0.009999999776482582,
				0.009999999776482582
			],
			"translation":[
				0,
				0,
				-1
			]
		},
		{
			"children":[
				9,
				15,
				21,
				27,
				33,
				39,
				45,
				51,
				57,
				66,
				75,
				81,
				87,
				93,
				99
			],
			"name":"Children.001"
		},
		{
			"name":"Gravity"
		},
		{
			"name":"sceneGroundPlane"
		},
		{
			"children":[
				0,
				100,
				101,
				102
			],
			"name":"Scene"
		},
		{
			"children":[
				103
			],
			"name":"Scenes"
		},
		{
			"children":[
				104
			],
			"name":"Root",
			"rotation":[
				0.7071068286895752,
				0,
				0,
				0.7071068286895752
			]
		}
	],
	"materials":[
		{
			"doubleSided":true,
			"name":"defaultMaterial.001",
			"pbrMetallicRoughness":{
				"baseColorFactor":[
					0,
					0.10000000149011612,
					0.8999999761581421,
					1
				],
				"metallicFactor":0,
				"roughnessFactor":0.5
			}
		},
		{
			"doubleSided":true,
			"name":"defaultMaterial.002",
			"pbrMetallicRoughness":{
				"baseColorFactor":[
					0,
					0.10000000149011612,
					0.8999999761581421,
					1
				],
				"metallicFactor":0,
				"roughnessFactor":0.5
			}
		},
		{
			"doubleSided":true,
			"name":"defaultMaterial.006",
			"pbrMetallicRoughness":{
				"baseColorFactor":[
					0,
					0.10000000149011612,
					0.8999999761581421,
					1
				],
				"metallicFactor":0,
				"roughnessFactor":0.5
			}
		},
		{
			"doubleSided":true,
			"name":"defaultMaterial.003",
			"pbrMetallicRoughness":{
				"baseColorFactor":[
					0,
					0.10000000149011612,
					0.8999999761581421,
					1
				],
				"metallicFactor":0,
				"roughnessFactor":0.5
			}
		},
		{
			"doubleSided":true,
			"name":"defaultMaterial.005",
			"pbrMetallicRoughness":{
				"baseColorFactor":[
					0,
					0.10000000149011612,
					0.8999999761581421,
					1
				],
				"metallicFactor":0,
				"roughnessFactor":0.5
			}
		},
		{
			"doubleSided":true,
			"name":"defaultMaterial.009",
			"pbrMetallicRoughness":{
				"baseColorFactor":[
					0.10000000149011612,
					0.8999999761581421,
					0,
					1
				],
				"metallicFactor":0,
				"roughnessFactor":0.5
			}
		},
		{
			"doubleSided":true,
			"name":"defaultMaterial.011",
			"pbrMetallicRoughness":{
				"baseColorFactor":[
					0,
					0.10000000149011612,
					0.8999999761581421,
					1
				],
				"metallicFactor":0,
				"roughnessFactor":0.5
			}
		},
		{
			"doubleSided":true,
			"name":"defaultMaterial.008",
			"pbrMetallicRoughness":{
				"baseColorFactor":[
					0,
					0.10000000149011612,
					0.8999999761581421,
					1
				],
				"metallicFactor":0,
				"roughnessFactor":0.5
			}
		},
		{
			"doubleSided":true,
			"name":"defaultMaterial.004",
			"pbrMetallicRoughness":{
				"baseColorFactor":[
					0,
					0.10000000149011612,
					0.8999999761581421,
					1
				],
				"metallicFactor":0,
				"roughnessFactor":0.5
			}
		},
		{
			"doubleSided":true,
			"name":"defaultMaterial",
			"pbrMetallicRoughness":{
				"baseColorFactor":[
					0.8999999761581421,
					0.10000000149011612,
					0,
					1
				],
				"metallicFactor":0,
				"roughnessFactor":0.5
			}
		},
		{
			"alphaMode":"BLEND",
			"doubleSided":true,
			"name":"defaultMaterial.007",
			"pbrMetallicRoughness":{
				"baseColorFactor":[
					0.10000000149011612,
					0.10000000149011612,
					0.10000000149011612,
					0.20000000298023224
				],
				"metallicFactor":0,
				"roughnessFactor":0.5
			}
		},
		{
			"doubleSided":true,
			"name":"defaultMaterial.010",
			"pbrMetallicRoughness":{
				"baseColorFactor":[
					0.5,
					0.5,
					0.5,
					1
				],
				"metallicFactor":0,
				"roughnessFactor":0.5
			}
		}
	],
	"meshes":[
		{
			"name":"Cube.002",
			"primitives":[
				{
					"attributes":{
						"POSITION":0,
						"NORMAL":1
					},
					"indices":2
				}
			]
		},
		{
			"name":"default.001",
			"primitives":[
				{
					"attributes":{
						"POSITION":3,
						"NORMAL":4
					},
					"indices":5,
					"material":0
				}
			]
		},
		{
			"name":"default.002",
			"primitives":[
				{
					"attributes":{
						"POSITION":6,
						"NORMAL":7
					},
					"indices":8,
					"material":1
				}
			]
		},
		{
			"name":"default.006",
			"primitives":[
				{
					"attributes":{
						"POSITION":9,
						"NORMAL":10
					},
					"indices":11,
					"material":2
				}
			]
		},
		{
			"name":"default.003",
			"primitives":[
				{
					"attributes":{
						"POSITION":12,
						"NORMAL":13
					},
					"indices":14,
					"material":3
				}
			]
		},
		{
			"name":"default.005",
			"primitives":[
				{
					"attributes":{
						"POSITION":15,
						"NORMAL":16
					},
					"indices":17,
					"material":4
				}
			]
		},
		{
			"name":"default.009",
			"primitives":[
				{
					"attributes":{
						"POSITION":18,
						"NORMAL":19
					},
					"indices":20,
					"material":5
				}
			]
		},
		{
			"name":"default.011",
			"primitives":[
				{
					"attributes":{
						"POSITION":21,
						"NORMAL":22
					},
					"indices":23,
					"material":6
				}
			]
		},
		{
			"name":"default.008",
			"primitives":[
				{
					"attributes":{
						"POSITION":24,
						"NORMAL":25
					},
					"indices":26,
					"material":7
				}
			]
		},
		{
			"name":"Cube.003",
			"primitives":[
				{
					"attributes":{
						"POSITION":27,
						"NORMAL":28
					},
					"indices":2
				}
			]
		},
		{
			"name":"Cube.001",
			"primitives":[
				{
					"attributes":{
						"POSITION":29,
						"NORMAL":30
					},
					"indices":2
				}
			]
		},
		{
			"name":"default.004",
			"primitives":[
				{
					"attributes":{
						"POSITION":31,
						"NORMAL":32
					},
					"indices":33,
					"material":8
				}
			]
		},
		{
			"name":"default",
			"primitives":[
				{
					"attributes":{
						"POSITION":34,
						"NORMAL":35
					},
					"indices":36,
					"material":9
				}
			]
		},
		{
			"name":"default.007",
			"primitives":[
				{
					"attributes":{
						"POSITION":37,
						"NORMAL":38
					},
					"indices":39,
					"material":10
				}
			]
		},
		{
			"name":"default.010",
			"primitives":[
				{
					"attributes":{
						"POSITION":40,
						"NORMAL":41
					},
					"indices":42,
					"material":11
				}
			]
		}
	],
	"accessors":[
		{
			"bufferView":0,
			"componentType":5126,
			"count":24,
			"max":[
				0.10000000149011612,
				0.10000000149011612,
				0.10000000149011612
			],
			"min":[
				-0.10000000149011612,
				-0.10000000149011612,
				-0.10000000149011612
			],
			"type":"VEC3"
		},
		{
			"bufferView":1,
			"componentType":5126,
			"count":24,
			"type":"VEC3"
		},
		{
			"bufferView":2,
			"componentType":5123,
			"count":36,
			"type":"SCALAR"
		},
		{
			"bufferView":3,
			"componentType":5126,
			"count":483,
			"max":[
				10.20099925994873,
				17.298166275024414,
				50.14145278930664
			],
			"min":[
				-5.109533786773682,
				-2.973665952682495,
				10.983977317810059
			],
			"type":"VEC3"
		},
		{
			"bufferView":4,
			"componentType":5126,
			"count":483,
			"type":"VEC3"
		},
		{
			"bufferView":5,
			"componentType":5123,
			"count":2886,
			"type":"SCALAR"
		},
		{
			"bufferView":6,
			"componentType":5126,
			"count":609,
			"max":[
				37.31301498413086,
				13.783658981323242,
				25.854360580444336
			],
			"min":[
				13.967367172241211,
				-26.534685134887695,
				7.247490882873535
			],
			"type":"VEC3"
		},
		{
			"bufferView":7,
			"componentType":5126,
			"count":609,
			"type":"VEC3"
		},
		{
			"bufferView":8,
			"componentType":5123,
			"count":3642,
			"type":"SCALAR"
		},
		{
			"bufferView":9,
			"componentType":5126,
			"count":600,
			"max":[
				-12.860837936401367,
				15.525167465209961,
				26.517778396606445
			],
			"min":[
				-34.005393981933594,
				-25.524124145507812,
				7.732946395874023
			],
			"type":"VEC3"
		},
		{
			"bufferView":10,
			"componentType":5126,
			"count":600,
			"type":"VEC3"
		},
		{
			"bufferView":11,
			"componentType":5123,
			"count":3588,
			"type":"SCALAR"
		},
		{
			"bufferView":12,
			"componentType":5126,
			"count":194,
			"max":[
				-27.98358726501465,
				13.335415840148926,
				18.411991119384766
			],
			"min":[
				-38.38592529296875,
				-4.460073471069336,
				8.95156478881836
			],
			"type":"VEC3"
		},
		{
			"bufferView":13,
			"componentType":5126,
			"count":194,
			"type":"VEC3"
		},
		{
			"bufferView":14,
			"componentType":5123,
			"count":1152,
			"type":"SCALAR"
		},
		{
			"bufferView":15,
			"componentType":5126,
			"count":3600,
			"max":[
				2.487759590148926,
				63.681663513183594,
				27.25126838684082
			],
			"min":[
				-37.30219268798828,
				-61.36469650268555,
				-31.22226905822754
			],
			"type":"VEC3"
		},
		{
			"bufferView":16,
			"componentType":5126,
			"count":3600,
			"type":"VEC3"
		},
		{
			"bufferView":17,
			"componentType":5123,
			"count":21588,
			"type":"SCALAR"
		},
		{
			"bufferView":18,
			"componentType":5126,
			"count":10047,
			"max":[
				56.5,
				54.5,
				28.5
			],
			"min":[
				-55.5,
				-84.5,
				-47.5
			],
			"type":"VEC3"
		},
		{
			"bufferView":19,
			"componentType":5126,
			"count":10047,
			"type":"VEC3"
		},
		{
			"bufferView":20,
			"componentType":5123,
			"count":57390,
			"type":"SCALAR"
		},
		{
			"bufferView":21,
			"componentType":5126,
			"count":206,
			"max":[
				39.163177490234375,
				9.993817329406738,
				19.18638801574707
			],
			"min":[
				30.722232818603516,
				-11.141860961914062,
				9.96899127960205
			],
			"type":"VEC3"
		},
		{
			"bufferView":22,
			"componentType":5126,
			"count":206,
			"type":"VEC3"
		},
		{
			"bufferView":23,
			"componentType":5123,
			"count":1224,
			"type":"SCALAR"
		},
		{
			"bufferView":24,
			"componentType":5126,
			"count":3041,
			"max":[
				37.555946350097656,
				37.39948272705078,
				16.671348571777344
			],
			"min":[
				1.5095750093460083,
				-61.442474365234375,
				-36.229347229003906
			],
			"type":"VEC3"
		},
		{
			"bufferView":25,
			"componentType":5126,
			"count":3041,
			"type":"VEC3"
		},
		{
			"bufferView":26,
			"componentType":5123,
			"count":18234,
			"type":"SCALAR"
		},
		{
			"bufferView":27,
			"componentType":5126,
			"count":24,
			"max":[
				0.10000000149011612,
				0.10000000149011612,
				0.10000000149011612
			],
			"min":[
				-0.10000000149011612,
				-0.10000000149011612,
				-0.10000000149011612
			],
			"type":"VEC3"
		},
		{
			"bufferView":28,
			"componentType":5126,
			"count":24,
			"type":"VEC3"
		},
		{
			"bufferView":29,
			"componentType":5126,
			"count":24,
			"max":[
				0.10000000149011612,
				0.10000000149011612,
				0.10000000149011612
			],
			"min":[
				-0.10000000149011612,
				-0.10000000149011612,
				-0.10000000149011612
			],
			"type":"VEC3"
		},
		{
			"bufferView":30,
			"componentType":5126,
			"count":24,
			"type":"VEC3"
		},
		{
			"bufferView":31,
			"componentType":5126,
			"count":391,
			"max":[
				7.625786781311035,
				-2.6821467876434326,
				10.50700855255127
			],
			"min":[
				-5.2152099609375,
				-31.72149658203125,
				-4.414570331573486
			],
			"type":"VEC3"
		},
		{
			"bufferView":32,
			"componentType":5126,
			"count":391,
			"type":"VEC3"
		},
		{
			"bufferView":33,
			"componentType":5123,
			"count":2334,
			"type":"SCALAR"
		},
		{
			"bufferView":34,
			"componentType":5126,
			"count":29341,
			"max":[
				62.914554595947266,
				33.98828887939453,
				82.40917205810547
			],
			"min":[
				-52.89249038696289,
				-88.81021881103516,
				-44.05760955810547
			],
			"type":"VEC3"
		},
		{
			"bufferView":35,
			"componentType":5126,
			"count":29341,
			"type":"VEC3"
		},
		{
			"bufferView":36,
			"componentType":5123,
			"count":176754,
			"type":"SCALAR"
		},
		{
			"bufferView":37,
			"componentType":5126,
			"count":270221,
			"max":[
				68.45842742919922,
				81.48383331298828,
				71.33194732666016
			],
			"min":[
				-66.49817657470703,
				-98.48506164550781,
				-65.45387268066406
			],
			"type":"VEC3"
		},
		{
			"bufferView":38,
			"componentType":5126,
			"count":270221,
			"type":"VEC3"
		},
		{
			"bufferView":39,
			"componentType":5125,
			"count":1622202,
			"type":"SCALAR"
		},
		{
			"bufferView":40,
			"componentType":5126,
			"count":16701,
			"max":[
				55.5,
				66.5,
				29.5
			],
			"min":[
				-55.5,
				-75.5,
				-47.5
			],
			"type":"VEC3"
		},
		{
			"bufferView":41,
			"componentType":5126,
			"count":16701,
			"type":"VEC3"
		},
		{
			"bufferView":42,
			"componentType":5123,
			"count":100008,
			"type":"SCALAR"
		}
	],
	"bufferViews":[
		{
			"buffer":0,
			"byteLength":288,
			"byteOffset":0,
			"target":34962
		},
		{
			"buffer":0,
			"byteLength":288,
			"byteOffset":288,
			"target":34962
		},
		{
			"buffer":0,
			"byteLength":72,
			"byteOffset":576,
			"target":34963
		},
		{
			"buffer":0,
			"byteLength":5796,
			"byteOffset":648,
			"target":34962
		},
		{
			"buffer":0,
			"byteLength":5796,
			"byteOffset":6444,
			"target":34962
		},
		{
			"buffer":0,
			"byteLength":5772,
			"byteOffset":12240,
			"target":34963
		},
		{
			"buffer":0,
			"byteLength":7308,
			"byteOffset":18012,
			"target":34962
		},
		{
			"buffer":0,
			"byteLength":7308,
			"byteOffset":25320,
			"target":34962
		},
		{
			"buffer":0,
			"byteLength":7284,
			"byteOffset":32628,
			"target":34963
		},
		{
			"buffer":0,
			"byteLength":7200,
			"byteOffset":39912,
			"target":34962
		},
		{
			"buffer":0,
			"byteLength":7200,
			"byteOffset":47112,
			"target":34962
		},
		{
			"buffer":0,
			"byteLength":7176,
			"byteOffset":54312,
			"target":34963
		},
		{
			"buffer":0,
			"byteLength":2328,
			"byteOffset":61488,
			"target":34962
		},
		{
			"buffer":0,
			"byteLength":2328,
			"byteOffset":63816,
			"target":34962
		},
		{
			"buffer":0,
			"byteLength":2304,
			"byteOffset":66144,
			"target":34963
		},
		{
			"buffer":0,
			"byteLength":43200,
			"byteOffset":68448,
			"target":34962
		},
		{
			"buffer":0,
			"byteLength":43200,
			"byteOffset":111648,
			"target":34962
		},
		{
			"buffer":0,
			"byteLength":43176,
			"byteOffset":154848,
			"target":34963
		},
		{
			"buffer":0,
			"byteLength":120564,
			"byteOffset":198024,
			"target":34962
		},
		{
			"buffer":0,
			"byteLength":120564,
			"byteOffset":318588,
			"target":34962
		},
		{
			"buffer":0,
			"byteLength":114780,
			"byteOffset":439152,
			"target":34963
		},
		{
			"buffer":0,
			"byteLength":2472,
			"byteOffset":553932,
			"target":34962
		},
		{
			"buffer":0,
			"byteLength":2472,
			"byteOffset":556404,
			"target":34962
		},
		{
			"buffer":0,
			"byteLength":2448,
			"byteOffset":558876,
			"target":34963
		},
		{
			"buffer":0,
			"byteLength":36492,
			"byteOffset":561324,
			"target":34962
		},
		{
			"buffer":0,
			"byteLength":36492,
			"byteOffset":597816,
			"target":34962
		},
		{
			"buffer":0,
			"byteLength":36468,
			"byteOffset":634308,
			"target":34963
		},
		{
			"buffer":0,
			"byteLength":288,
			"byteOffset":670776,
			"target":34962
		},
		{
			"buffer":0,
			"byteLength":288,
			"byteOffset":671064,
			"target":34962
		},
		{
			"buffer":0,
			"byteLength":288,
			"byteOffset":671352,
			"target":34962
		},
		{
			"buffer":0,
			"byteLength":288,
			"byteOffset":671640,
			"target":34962
		},
		{
			"buffer":0,
			"byteLength":4692,
			"byteOffset":671928,
			"target":34962
		},
		{
			"buffer":0,
			"byteLength":4692,
			"byteOffset":676620,
			"target":34962
		},
		{
			"buffer":0,
			"byteLength":4668,
			"byteOffset":681312,
			"target":34963
		},
		{
			"buffer":0,
			"byteLength":352092,
			"byteOffset":685980,
			"target":34962
		},
		{
			"buffer":0,
			"byteLength":352092,
			"byteOffset":1038072,
			"target":34962
		},
		{
			"buffer":0,
			"byteLength":353508,
			"byteOffset":1390164,
			"target":34963
		},
		{
			"buffer":0,
			"byteLength":3242652,
			"byteOffset":1743672,
			"target":34962
		},
		{
			"buffer":0,
			"byteLength":3242652,
			"byteOffset":4986324,
			"target":34962
		},
		{
			"buffer":0,
			"byteLength":6488808,
			"byteOffset":8228976,
			"target":34963
		},
		{
			"buffer":0,
			"byteLength":200412,
			"byteOffset":14717784,
			"target":34962
		},
		{
			"buffer":0,
			"byteLength":200412,
			"byteOffset":14918196,
			"target":34962
		},
		{
			"buffer":0,
			"byteLength":200016,
			"byteOffset":15118608,
			"target":34963
		}
	],
	"buffers":[
		{
			"byteLength":15318624,
			"uri":"brain.bin"
		}
	]
}
