{"accessors": [{"bufferView": 0, "componentType": 5125, "count": 1622202, "type": "SCALAR", "max": [1622201], "min": [0]}, {"bufferView": 1, "componentType": 5126, "count": 1622202, "type": "VEC3", "max": [68.45842742919922, 65.45387268066406, 81.48383331298828], "min": [-66.49817657470703, -71.33194732666016, -98.48506164550781]}], "asset": {"version": "2.0"}, "buffers": [{"uri": "example_geometry.bin", "byteLength": 25955232}], "bufferViews": [{"buffer": 0, "byteOffset": 0, "byteLength": 6488808, "target": 34963}, {"buffer": 0, "byteOffset": 6488808, "byteLength": 19466424, "target": 34962}], "materials": [{"name": "defaultMaterial", "pbrMetallicRoughness": {"baseColorFactor": [0.10000000149011612, 0.10000000149011612, 0.10000000149011612, 0.20000000298023224], "metallicFactor": 0.0}, "emissiveFactor": [0, 0, 0], "alphaMode": "BLEND", "doubleSided": false}], "meshes": [{"name": "default", "primitives": [{"attributes": {"POSITION": 1}, "indices": 0, "material": 0}]}], "nodes": [{"name": "wholebrain", "children": [1]}, {"name": "default", "mesh": 0}], "scenes": [{"nodes": [0]}]}