{"accessors": [{"bufferView": 0, "componentType": 5125, "count": 176754, "type": "SCALAR", "max": [176753], "min": [0]}, {"bufferView": 1, "componentType": 5126, "count": 176754, "type": "VEC3", "max": [62.914554595947266, 44.05760955810547, 33.98828887939453], "min": [-52.89249038696289, -82.40917205810547, -88.81021881103516]}], "asset": {"version": "2.0"}, "buffers": [{"uri": "example.bin", "byteLength": 2828064}], "bufferViews": [{"buffer": 0, "byteOffset": 0, "byteLength": 707016, "target": 34963}, {"buffer": 0, "byteOffset": 707016, "byteLength": 2121048, "target": 34962}], "materials": [{"name": "defaultMaterial", "pbrMetallicRoughness": {"baseColorFactor": [0.8999999761581421, 0.10000000149011612, 0.0, 1], "metallicFactor": 0.0}, "emissiveFactor": [0, 0, 0], "doubleSided": false}], "meshes": [{"name": "default", "primitives": [{"attributes": {"POSITION": 1}, "indices": 0, "material": 0}]}], "nodes": [{"name": "Vasculature", "children": [1]}, {"name": "default", "mesh": 0}], "scenes": [{"nodes": [0]}]}