{"asset":{"version":"2.0","generator":"THREE.GLTFExporter"},"scenes":[{"name":"AuxScene","nodes":[15]}],"scene":0,"nodes":[{"matrix":[9,0,0,0,0,-0.0000018253433609061176,9,0,0,-9,-0.0000018253433609061176,0,0,0.40995919704437256,-20.333168029785156,1],"mesh":0},{"matrix":[9,0,0,0,0,-0.0000018253433609061176,9,0,0,-9,-0.0000018253433609061176,0,0,0.40995919704437256,-20.333168029785156,1],"mesh":1},{"matrix":[9,0,0,0,0,-0.0000018253433609061176,9,0,0,-9,-0.0000018253433609061176,0,0,0.40995919704437256,-20.333168029785156,1],"mesh":2},{"matrix":[9,0,0,0,0,-0.0000018253433609061176,9,0,0,-9,-0.0000018253433609061176,0,0,0.40995919704437256,-20.333168029785156,1],"mesh":3},{"matrix":[9,0,0,0,0,-0.0000018253433609061176,9,0,0,-9,-0.0000018253433609061176,0,0,0.40995919704437256,-20.333168029785156,1],"mesh":4},{"matrix":[9,0,0,0,0,-0.0000018253433609061176,9,0,0,-9,-0.0000018253433609061176,0,0,0.40995919704437256,-20.333168029785156,1],"mesh":5},{"matrix":[9,0,0,0,0,-0.0000018253433609061176,9,0,0,-9,-0.0000018253433609061176,0,0,0.40995919704437256,-20.333168029785156,1],"mesh":6},{"matrix":[9,0,0,0,0,-0.0000018253433609061176,9,0,0,-9,-0.0000018253433609061176,0,0,0.40995919704437256,-20.333168029785156,1],"mesh":7},{"matrix":[9,0,0,0,0,-0.0000018253433609061176,9,0,0,-9,-0.0000018253433609061176,0,0,0.40995919704437256,-20.333168029785156,1],"mesh":8},{"matrix":[9,0,0,0,0,-0.0000018253433609061176,9,0,0,-9,-0.0000018253433609061176,0,0,0.40995919704437256,-20.333168029785156,1],"mesh":9},{"matrix":[9,0,0,0,0,-0.0000018253433609061176,9,0,0,-9,-0.0000018253433609061176,0,0,0.40995919704437256,-20.333168029785156,1],"mesh":10},{"matrix":[9,0,0,0,0,-0.0000018253433609061176,9,0,0,-9,-0.0000018253433609061176,0,0,0.40995919704437256,-20.333168029785156,1],"mesh":11},{"matrix":[9,0,0,0,0,-0.0000018253433609061176,9,0,0,-9,-0.0000018253433609061176,0,0,0.40995919704437256,-20.333168029785156,1],"mesh":12},{"matrix":[9,0,0,0,0,-0.0000018253433609061176,9,0,0,-9,-0.0000018253433609061176,0,0,0.40995919704437256,-20.333168029785156,1],"mesh":13},{"matrix":[9,0,0,0,0,-0.0000018253433609061176,9,0,0,-9,-0.0000018253433609061176,0,0,0.40995919704437256,-20.333168029785156,1],"mesh":14},{"children":[0,1,2,3,4,5,6,7,8,9,10,11,12,13,14]}],"bufferViews":[{"buffer":0,"byteOffset":0,"byteLength":6768,"target":34962,"byteStride":12},{"buffer":0,"byteOffset":6768,"byteLength":6768,"target":34962,"byteStride":12},{"buffer":0,"byteOffset":13536,"byteLength":19080,"target":34962,"byteStride":12},{"buffer":0,"byteOffset":32616,"byteLength":19080,"target":34962,"byteStride":12},{"buffer":0,"byteOffset":51696,"byteLength":11304,"target":34962,"byteStride":12},{"buffer":0,"byteOffset":63000,"byteLength":11304,"target":34962,"byteStride":12},{"buffer":0,"byteOffset":74304,"byteLength":37008,"target":34962,"byteStride":12},{"buffer":0,"byteOffset":111312,"byteLength":37008,"target":34962,"byteStride":12},{"buffer":0,"byteOffset":148320,"byteLength":264816,"target":34962,"byteStride":12},{"buffer":0,"byteOffset":413136,"byteLength":264816,"target":34962,"byteStride":12},{"buffer":0,"byteOffset":677952,"byteLength":19440,"target":34962,"byteStride":12},{"buffer":0,"byteOffset":697392,"byteLength":19440,"target":34962,"byteStride":12},{"buffer":0,"byteOffset":716832,"byteLength":46944,"target":34962,"byteStride":12},{"buffer":0,"byteOffset":763776,"byteLength":46944,"target":34962,"byteStride":12},{"buffer":0,"byteOffset":810720,"byteLength":32688,"target":34962,"byteStride":12},{"buffer":0,"byteOffset":843408,"byteLength":32688,"target":34962,"byteStride":12},{"buffer":0,"byteOffset":876096,"byteLength":27072,"target":34962,"byteStride":12},{"buffer":0,"byteOffset":903168,"byteLength":27072,"target":34962,"byteStride":12},{"buffer":0,"byteOffset":930240,"byteLength":180,"target":34962,"byteStride":12},{"buffer":0,"byteOffset":930420,"byteLength":180,"target":34962,"byteStride":12},{"buffer":0,"byteOffset":930600,"byteLength":46332,"target":34962,"byteStride":12},{"buffer":0,"byteOffset":976932,"byteLength":46332,"target":34962,"byteStride":12},{"buffer":0,"byteOffset":1023264,"byteLength":6768,"target":34962,"byteStride":12},{"buffer":0,"byteOffset":1030032,"byteLength":6768,"target":34962,"byteStride":12},{"buffer":0,"byteOffset":1036800,"byteLength":19980,"target":34962,"byteStride":12},{"buffer":0,"byteOffset":1056780,"byteLength":19980,"target":34962,"byteStride":12},{"buffer":0,"byteOffset":1076760,"byteLength":6768,"target":34962,"byteStride":12},{"buffer":0,"byteOffset":1083528,"byteLength":6768,"target":34962,"byteStride":12},{"buffer":0,"byteOffset":1090296,"byteLength":25848,"target":34962,"byteStride":12},{"buffer":0,"byteOffset":1116144,"byteLength":25848,"target":34962,"byteStride":12}],"buffers":[{"byteLength":1141992,"uri":"data:application/octet-stream;base64,"}],"accessors":[{"bufferView":0,"componentType":5126,"count":564,"max":[0.44615408778190613,1.940953016281128,0.42950019240379333],"min":[0.10597120225429535,1.6012190580368042,0.08673263341188431],"type":"VEC3"},{"bufferView":1,"componentType":5126,"count":564,"max":[0.9957719445228577,0.9871423840522766,0.9998111724853516],"min":[-0.9626910090446472,-0.9897966980934143,-0.9976062178611755],"type":"VEC3"},{"bufferView":2,"componentType":5126,"count":1590,"max":[1.1853059530258179,3.039541006088257,0.6656761169433594],"min":[1.0351649522781372,2.8783140182495117,0.5012935996055603],"type":"VEC3"},{"bufferView":3,"componentType":5126,"count":1590,"max":[0.9986283779144287,0.9999845027923584,0.9968236088752747],"min":[-0.9998679161071777,-0.9929983615875244,-0.9988325834274292],"type":"VEC3"},{"bufferView":4,"componentType":5126,"count":942,"max":[2.130776882171631,-1.154539942741394,0.140905499458313],"min":[-2.2564659118652344,-2.6256539821624756,-0.9317951798439026],"type":"VEC3"},{"bufferView":5,"componentType":5126,"count":942,"max":[0.9866273999214172,0.9971843957901001,0.9929760694503784],"min":[-0.9547261595726013,-0.9490103721618652,-0.9782662391662598],"type":"VEC3"},{"bufferView":6,"componentType":5126,"count":3084,"max":[2.2527170181274414,2.718453884124756,0.4372884929180145],"min":[-0.712088406085968,-1.6364339590072632,-0.48891058564186096],"type":"VEC3"},{"bufferView":7,"componentType":5126,"count":3084,"max":[0.9967944025993347,0.997514545917511,0.9988542199134827],"min":[-0.9993118047714233,-0.9996330738067627,-0.9970119595527649],"type":"VEC3"},{"bufferView":8,"componentType":5126,"count":22068,"max":[2.9389209747314453,1.9050840139389038,0.5885449051856995],"min":[-2.823780059814453,-1.5431580543518066,-0.5654491186141968],"type":"VEC3"},{"bufferView":9,"componentType":5126,"count":22068,"max":[0.9998181462287903,0.9998314380645752,0.999987006187439],"min":[-0.9998602271080017,-0.9998797178268433,-0.9999416470527649],"type":"VEC3"},{"bufferView":10,"componentType":5126,"count":1620,"max":[0.32824280858039856,0.721164882183075,0.2715716063976288],"min":[0.06835991144180298,0.46281081438064575,0.004709839820861816],"type":"VEC3"},{"bufferView":11,"componentType":5126,"count":1620,"max":[0.9975405335426331,0.992665708065033,0.99981290102005],"min":[-0.995180606842041,-0.9977586269378662,-0.9967392086982727],"type":"VEC3"},{"bufferView":12,"componentType":5126,"count":3912,"max":[1.5747079849243164,5.181274890899658,1.281370997428894],"min":[-0.6190990805625916,3.027395009994507,-0.9495906233787537],"type":"VEC3"},{"bufferView":13,"componentType":5126,"count":3912,"max":[0.9974403381347656,0.9894072413444519,0.9990628361701965],"min":[-0.9993118047714233,-0.9947600364685059,-0.9998212456703186],"type":"VEC3"},{"bufferView":14,"componentType":5126,"count":2724,"max":[0.45532891154289246,1.9228639602661133,0.4140600860118866],"min":[0.10332509875297546,1.5877360105514526,0.1079426035284996],"type":"VEC3"},{"bufferView":15,"componentType":5126,"count":2724,"max":[0.9964264035224915,0.9996892213821411,0.9993778467178345],"min":[-0.997958779335022,-0.9934378266334534,-0.9924960732460022],"type":"VEC3"},{"bufferView":16,"componentType":5126,"count":2256,"max":[1.3396810293197632,-2.7127060890197754,0.17905570566654205],"min":[0.5708215236663818,-3.2213261127471924,-0.5335745215415955],"type":"VEC3"},{"bufferView":17,"componentType":5126,"count":2256,"max":[0.9991697072982788,0.989307165145874,0.998379647731781],"min":[-0.9915046095848083,-0.9915289282798767,-0.9983793497085571],"type":"VEC3"},{"bufferView":18,"componentType":5126,"count":15,"max":[2.1094770431518555,-0.5903975963592529,0.5364550948143005],"min":[1.1244750022888184,-1.395427942276001,0.15973110496997833],"type":"VEC3"},{"bufferView":19,"componentType":5126,"count":15,"max":[0.6117041707038879,0.5824187994003296,0.7692322134971619],"min":[-0.8261209726333618,-0.7307513952255249,0.4776498079299927],"type":"VEC3"},{"bufferView":20,"componentType":5126,"count":3861,"max":[2.0311570167541504,3.040400981903076,0.6581798791885376],"min":[-2.4213619232177734,-2.774049997329712,-1.0472890138626099],"type":"VEC3"},{"bufferView":21,"componentType":5126,"count":3861,"max":[0.9924151301383972,0.9978846311569214,0.9993664622306824],"min":[-0.9963334798812866,-0.9977762699127197,-0.9972912669181824],"type":"VEC3"},{"bufferView":22,"componentType":5126,"count":564,"max":[-0.2057037055492401,-3.507354974746704,-0.3072079122066498],"min":[-0.7073538899421692,-4.0221028327941895,-0.8113275766372681],"type":"VEC3"},{"bufferView":23,"componentType":5126,"count":564,"max":[0.9965870976448059,0.9662922024726868,0.9985992908477783],"min":[-0.9962666630744934,-0.9987457394599915,-0.9962286949157715],"type":"VEC3"},{"bufferView":24,"componentType":5126,"count":1665,"max":[1.7852089405059814,0.7421579957008362,0.27461400628089905],"min":[0.05921715125441551,-0.6949477195739746,-0.12151060253381729],"type":"VEC3"},{"bufferView":25,"componentType":5126,"count":1665,"max":[0.996692955493927,0.9999428391456604,0.9987326264381409],"min":[-0.9918721318244934,-0.9988848567008972,-0.9781889915466309],"type":"VEC3"},{"bufferView":26,"componentType":5126,"count":564,"max":[1.4669450521469116,5.109314918518066,1.2655600309371948],"min":[-0.5527452230453491,3.144542932510376,-0.8160616159439087],"type":"VEC3"},{"bufferView":27,"componentType":5126,"count":564,"max":[0.984245240688324,0.9917005896568298,0.9670982956886292],"min":[-0.9701792001724243,-0.9923375844955444,-0.9787937998771667],"type":"VEC3"},{"bufferView":28,"componentType":5126,"count":2154,"max":[0.4203501045703888,-4.446211814880371,-0.37153148651123047],"min":[0.315286785364151,-4.542846202850342,-0.46941450238227844],"type":"VEC3"},{"bufferView":29,"componentType":5126,"count":2154,"max":[0.9849175810813904,0.9943901300430298,0.9957565665245056],"min":[-0.9982737898826599,-0.9969305396080017,-0.9973674416542053],"type":"VEC3"}],"materials":[{"pbrMetallicRoughness":{"baseColorFactor":[0,0.7400000095367432,0.8299999833106995,1],"metallicFactor":0,"roughnessFactor":1}},{"pbrMetallicRoughness":{"baseColorFactor":[0.4699999988079071,0.33000001311302185,0.2800000011920929,1],"metallicFactor":0,"roughnessFactor":1}},{"pbrMetallicRoughness":{"baseColorFactor":[1,0.800000011920929,0.5299999713897705,1],"metallicFactor":0,"roughnessFactor":1}},{"pbrMetallicRoughness":{"baseColorFactor":[1,0.6000000238418579,0,1],"metallicFactor":0,"roughnessFactor":1}},{"pbrMetallicRoughness":{"baseColorFactor":[0.8100000023841858,0.8500000238418579,0.8600000143051147,1],"metallicFactor":0,"roughnessFactor":1}},{"pbrMetallicRoughness":{"baseColorFactor":[0.9599999785423279,0.25999999046325684,0.20999999344348907,1],"metallicFactor":0,"roughnessFactor":1}},{"pbrMetallicRoughness":{"baseColorFactor":[1,0.6000000238418579,0,1],"metallicFactor":0,"roughnessFactor":1},"emissiveFactor":[1,0.6000000238418579,0]},{"pbrMetallicRoughness":{"baseColorFactor":[0.550000011920929,0.7599999904632568,0.28999999165534973,1],"metallicFactor":0,"roughnessFactor":1}},{"pbrMetallicRoughness":{"baseColorFactor":[0.5,0.8700000047683716,0.9200000166893005,1],"metallicFactor":0,"roughnessFactor":1}},{"pbrMetallicRoughness":{"metallicFactor":0,"roughnessFactor":1}},{"pbrMetallicRoughness":{"baseColorFactor":[0.8700000047683716,0.6000000238418579,0.27000001072883606,1],"metallicFactor":0,"roughnessFactor":1}},{"pbrMetallicRoughness":{"baseColorFactor":[0.009999999776482582,0.6100000143051147,0.8999999761581421,1],"metallicFactor":0,"roughnessFactor":1}},{"pbrMetallicRoughness":{"baseColorFactor":[1,0.3400000035762787,0.12999999523162842,1],"metallicFactor":0,"roughnessFactor":1}},{"pbrMetallicRoughness":{"baseColorFactor":[1,0.9200000166893005,0.23000000417232513,1],"metallicFactor":0,"roughnessFactor":1},"emissiveFactor":[1,0.9200000166893005,0.23000000417232513]},{"pbrMetallicRoughness":{"baseColorFactor":[0.6200000047683716,0.6200000047683716,0.6200000047683716,1],"metallicFactor":0,"roughnessFactor":1}}],"meshes":[{"primitives":[{"mode":4,"attributes":{"POSITION":0,"NORMAL":1},"material":0}]},{"primitives":[{"mode":4,"attributes":{"POSITION":2,"NORMAL":3},"material":1}]},{"primitives":[{"mode":4,"attributes":{"POSITION":4,"NORMAL":5},"material":2}]},{"primitives":[{"mode":4,"attributes":{"POSITION":6,"NORMAL":7},"material":3}]},{"primitives":[{"mode":4,"attributes":{"POSITION":8,"NORMAL":9},"material":4}]},{"primitives":[{"mode":4,"attributes":{"POSITION":10,"NORMAL":11},"material":5}]},{"primitives":[{"mode":4,"attributes":{"POSITION":12,"NORMAL":13},"material":6}]},{"primitives":[{"mode":4,"attributes":{"POSITION":14,"NORMAL":15},"material":7}]},{"primitives":[{"mode":4,"attributes":{"POSITION":16,"NORMAL":17},"material":8}]},{"primitives":[{"mode":4,"attributes":{"POSITION":18,"NORMAL":19},"material":9}]},{"primitives":[{"mode":4,"attributes":{"POSITION":20,"NORMAL":21},"material":10}]},{"primitives":[{"mode":4,"attributes":{"POSITION":22,"NORMAL":23},"material":11}]},{"primitives":[{"mode":4,"attributes":{"POSITION":24,"NORMAL":25},"material":12}]},{"primitives":[{"mode":4,"attributes":{"POSITION":26,"NORMAL":27},"material":13}]},{"primitives":[{"mode":4,"attributes":{"POSITION":28,"NORMAL":29},"material":14}]}]}